<?xml version="1.0" encoding="utf-8"?>
<!-- Generator: Adobe Illustrator 27.2.0, SVG Export Plug-In . SVG Version: 6.00 Build 0)  -->
<svg version="1.1" id="Ebene_1" xmlns="http://www.w3.org/2000/svg" xmlns:xlink="http://www.w3.org/1999/xlink" x="0px" y="0px"
	 viewBox="0 0 12 12" style="enable-background:new 0 0 12 12;" xml:space="preserve">
<style type="text/css">
	.st0{fill:#F2F2F2;}
</style>
<path class="st0" d="M10.7,7c-0.1-0.2-0.3-0.4-0.5-0.4c-0.1,0-0.1,0-0.2,0C8,7.2,5.9,6,5.4,4c-0.2-0.7-0.2-1.3,0-2V1.9
	c0-0.2-0.1-0.5-0.4-0.6c-0.1,0-0.2-0.1-0.4,0c-2.5,0.7-4,3.4-3.3,6s3.4,4.1,6,3.4c1.6-0.5,2.9-1.7,3.4-3.4C10.7,7.2,10.7,7.1,10.7,7
	z M6,9.8C3.9,9.8,2.2,8.1,2.2,6c0-1.3,0.7-2.6,1.9-3.3c-0.1,2.7,2,5,4.7,5.2c0.2,0,0.3,0,0.5,0C8.6,9,7.3,9.7,6,9.8z"/>
</svg>
