<?xml version="1.0" encoding="utf-8"?>
<!-- Generator: Adobe Illustrator 27.1.1, SVG Export Plug-In . SVG Version: 6.00 Build 0)  -->
<svg version="1.1"
	 id="svg3427" xmlns:rdf="http://www.w3.org/1999/02/22-rdf-syntax-ns#" xmlns:dc="http://purl.org/dc/elements/1.1/" xmlns:svg="http://www.w3.org/2000/svg" xmlns:cc="http://web.resource.org/cc/"
	 xmlns="http://www.w3.org/2000/svg" xmlns:xlink="http://www.w3.org/1999/xlink" x="0px" y="0px" viewBox="0 0 40 40"
	 style="enable-background:new 0 0 40 40;" xml:space="preserve">
<style type="text/css">
	.st0{fill:#242424;}
</style>
<g id="layer1">
	<path id="path3395" class="st0" d="M20,0c-4.7,0-8.6,4-8.6,9c0,3.1,1.7,5.8,3.3,8.3c-1.9-1.4-4-2.3-6.2-2.3C3.8,15,0,19,0,24
		s3.8,9,8.6,9c3.8-0.1,6.9-2.7,9.9-5c-0.5,6.7-1.6,10.5-8,12h19c-6.4-1.5-7.5-5.3-8-12c3,2.6,6.1,4.7,9.9,5c4.7,0,8.6-4,8.6-9
		s-3.8-9-8.6-9c-2.3,0-4.3,1.1-6.2,2.3c1.9-2.5,3.2-5.2,3.3-8.3C28.6,4,24.7,0,20,0z"/>
</g>
</svg>
